<svg width="203" height="205" viewBox="0 0 203 205" fill="none" xmlns="http://www.w3.org/2000/svg">
<g clip-path="url(#clip0_2_563)">
<path d="M126.994 20.9346C126.517 21.4265 125.901 21.7435 125.144 21.9339C124.388 22.1002 123.543 22.069 122.609 21.8405C121.674 21.6119 120.866 21.2182 120.232 20.7096C119.598 20.2009 119.112 19.6007 118.824 18.8865C118.536 18.1723 118.468 17.4176 118.595 16.5973L121.397 17.3072C121.329 17.8627 121.431 18.376 121.704 18.8228C121.978 19.2696 122.426 19.5773 123.049 19.7216C123.6 19.8632 124.061 19.8317 124.432 19.6027C124.803 19.3738 125.033 19.0426 125.147 18.5858C125.258 18.1774 125.223 17.8122 125.043 17.4659C124.885 17.1447 124.63 16.8441 124.301 16.5894C123.972 16.3346 123.524 16.0269 122.934 15.6412C122.178 15.1524 121.565 14.7173 121.121 14.3127C120.676 13.9082 120.332 13.4102 120.089 12.7947C119.846 12.1791 119.847 11.4756 120.048 10.6338C120.331 9.50388 120.965 8.70233 121.949 8.25334C122.933 7.80436 124.095 7.75017 125.461 8.09166C126.85 8.45828 127.891 9.07896 128.536 9.95193C129.204 10.85 129.433 11.8532 129.269 13.0118L126.419 12.2759C126.462 11.768 126.357 11.3274 126.105 10.9541C125.854 10.5567 125.452 10.2992 124.901 10.1576C124.422 10.0429 123.986 10.0511 123.617 10.2316C123.247 10.4121 123.018 10.7433 122.879 11.2234C122.816 11.6335 122.85 11.9988 123.008 12.32C123.165 12.6412 123.421 12.9175 123.726 13.1714C124.031 13.4253 124.479 13.7329 125.046 14.0935C125.825 14.6075 126.437 15.0668 126.906 15.4722C127.374 15.8777 127.719 16.3757 127.961 17.0154C128.204 17.631 128.201 18.383 128 19.2248C127.807 19.8728 127.496 20.4436 126.994 20.9346Z" fill="#242F65"/>
<path d="M147.034 17.8153C147.663 19.1002 147.83 20.4893 147.484 22.0051L144.894 20.7693C144.947 19.9706 144.78 19.2608 144.394 18.5915C144.006 17.9464 143.421 17.4153 142.637 17.0467C141.996 16.7319 141.323 16.6101 140.644 16.682C139.964 16.754 139.325 17.0216 138.752 17.4858C138.179 17.9499 137.696 18.5872 137.302 19.4219C136.91 20.2323 136.736 21.0023 136.733 21.7543C136.729 22.5063 136.923 23.1686 137.288 23.7401C137.654 24.3116 138.169 24.7673 138.811 25.0821C139.595 25.4507 140.363 25.6004 141.117 25.4826C141.871 25.3648 142.535 25.0496 143.111 24.5128L145.701 25.7486C144.738 26.9505 143.55 27.7074 142.16 28.0201C140.77 28.3328 139.303 28.1089 137.783 27.3735C136.619 26.821 135.705 26.0352 135.062 25.0895C134.421 24.1196 134.074 23.0393 134.045 21.8494C134.017 20.6594 134.279 19.456 134.855 18.2398C135.432 17.0237 136.217 16.0579 137.164 15.3164C138.109 14.5991 139.164 14.177 140.304 14.0977C141.444 13.9941 142.62 14.2316 143.808 14.8092C145.329 15.5203 146.404 16.5305 147.034 17.8153Z" fill="#242F65"/>
<path d="M153.953 37.3834L154.616 31.1966L153.651 30.4816L150.448 34.7308L148.285 33.074L156.521 22.1683L160.661 25.3052C161.931 26.274 162.643 27.295 162.843 28.4185C163.044 29.542 162.763 30.5992 162 31.6144C161.389 32.441 160.621 32.9465 159.743 33.1567C158.865 33.367 157.926 33.2354 156.928 32.7618L156.354 39.1702L153.953 37.3834ZM154.794 28.9952L156.582 30.3471C157.829 31.2907 158.872 31.2079 159.686 30.0976C160.092 29.5788 160.233 29.0502 160.156 28.5135C160.079 27.9769 159.71 27.4781 159.075 26.9937L157.288 25.6419L154.794 28.9952Z" fill="#242F65"/>
<path d="M176.48 41.5623C176.727 42.736 176.636 43.8973 176.231 45.047C175.825 46.1966 175.135 47.2145 174.111 48.0987C173.111 48.9838 172.002 49.5495 170.807 49.8209C169.614 50.068 168.431 50.0002 167.309 49.6191C166.186 49.238 165.196 48.5465 164.361 47.5937C163.526 46.6409 162.985 45.5777 162.738 44.404C162.491 43.2302 162.582 42.069 162.988 40.8951C163.393 39.7454 164.108 38.7042 165.108 37.8191C166.108 36.934 167.217 36.3683 168.411 36.1212C169.605 35.8741 170.763 35.941 171.885 36.3221C173.008 36.7031 173.998 37.3947 174.833 38.3475C175.692 39.3254 176.233 40.3886 176.48 41.5623ZM171.166 38.7946C170.497 38.5758 169.796 38.55 169.064 38.7414C168.331 38.9327 167.616 39.3188 166.941 39.9247C166.266 40.5307 165.783 41.168 165.49 41.8851C165.199 42.5779 165.125 43.2788 165.268 43.9877C165.388 44.6715 165.726 45.339 166.26 45.941C166.794 46.543 167.383 46.9529 168.052 47.1717C168.721 47.3905 169.422 47.3921 170.154 47.2007C170.887 47.0093 171.602 46.6233 172.278 46.0173C172.953 45.4114 173.436 44.7741 173.728 44.057C174.021 43.3399 174.094 42.6632 173.951 41.9543C173.831 41.2706 173.493 40.603 172.959 40.001C172.448 39.4242 171.859 39.0142 171.166 38.7946Z" fill="#242F65"/>
<path d="M175.195 58.7172L177.54 62.6614L175.735 63.7352L172.026 57.4358L183.769 50.4443L185.157 52.8005L175.195 58.7172Z" fill="#242F65"/>
<path d="M180.961 70.2117L182.69 74.4729L180.751 75.2506L178.003 68.4528L190.646 63.29L191.665 65.8266L180.961 70.2117Z" fill="#242F65"/>
<path d="M188.684 98.8112C187.588 98.3583 186.721 97.6227 186.032 96.6268C185.344 95.6067 184.93 94.3783 184.767 92.8923L184.245 88.0448L197.793 86.5304L198.316 91.3537C198.479 92.8397 198.334 94.1446 197.906 95.2691C197.478 96.3937 196.767 97.3137 195.823 97.9826C194.88 98.6514 193.704 99.069 192.344 99.213C190.982 99.4297 189.779 99.264 188.684 98.8112ZM188.678 95.6811C189.547 96.3925 190.649 96.6757 192.032 96.5326C193.44 96.3904 194.476 95.8463 195.136 94.9729C195.822 94.0762 196.083 92.9212 195.92 91.4352L195.699 89.5588L186.934 90.5216L187.131 92.3971C187.319 93.8598 187.811 94.9455 188.678 95.6811Z" fill="#242F65"/>
<path d="M197.379 116.77C196.667 117.739 195.769 118.482 194.639 118.95C193.509 119.442 192.294 119.616 190.969 119.47C189.644 119.324 188.476 118.893 187.486 118.177C186.497 117.461 185.757 116.56 185.265 115.475C184.797 114.39 184.623 113.195 184.743 111.913C184.887 110.632 185.291 109.507 186.004 108.538C186.693 107.569 187.615 106.827 188.744 106.359C189.875 105.867 191.09 105.693 192.439 105.84C193.763 105.986 194.932 106.417 195.922 107.109C196.911 107.825 197.652 108.725 198.144 109.811C198.612 110.896 198.785 112.091 198.665 113.373C198.496 114.676 198.092 115.802 197.379 116.77ZM195.828 110.987C195.537 110.346 195.073 109.819 194.435 109.407C193.797 108.996 193.033 108.749 192.142 108.643C191.251 108.538 190.45 108.63 189.739 108.895C189.028 109.159 188.456 109.575 188.049 110.142C187.617 110.709 187.374 111.379 187.297 112.177C187.219 112.975 187.314 113.682 187.603 114.348C187.894 114.989 188.358 115.516 188.996 115.928C189.634 116.339 190.398 116.586 191.289 116.691C192.18 116.797 192.981 116.705 193.692 116.44C194.403 116.175 194.975 115.76 195.382 115.193C195.814 114.626 196.057 113.956 196.134 113.158C196.213 112.336 196.118 111.629 195.828 110.987Z" fill="#242F65"/>
<path d="M189.787 145.63L178.132 137.776L179.288 134.616L189.455 135.622L181.062 129.78L182.217 126.645L196.184 128.203L195.163 130.98L184.513 129.301L193.497 135.504L192.475 138.305L181.61 137.225L190.808 142.853L189.787 145.63Z" fill="#242F65"/>
<path d="M167.752 155.008L169.286 152.735L180.38 152.877L172.713 147.669L174.248 145.397L185.547 153.068L184.013 155.34L172.849 155.147L180.586 160.406L179.051 162.679L167.752 155.008Z" fill="#242F65"/>
<path d="M159.707 181.715L158.342 180.04L161.236 177.623L153.922 168.74L156.018 166.998L163.331 175.88L166.224 173.488L167.613 175.165L159.707 181.715Z" fill="#242F65"/>
<path d="M144.426 190.202C143.242 190.183 142.119 189.826 141.079 189.181C140.039 188.536 139.202 187.607 138.569 186.42C137.936 185.232 137.617 184.031 137.639 182.794C137.66 181.558 137.991 180.454 138.609 179.433C139.251 178.414 140.128 177.597 141.238 176.983C142.349 176.369 143.52 176.096 144.704 176.116C145.888 176.135 147.011 176.492 148.051 177.137C149.091 177.806 149.928 178.71 150.561 179.898C151.194 181.086 151.513 182.287 151.468 183.498C151.448 184.711 151.116 185.839 150.498 186.859C149.856 187.879 148.979 188.696 147.869 189.31C146.781 189.949 145.61 190.246 144.426 190.202ZM148.294 185.638C148.655 185.02 148.825 184.347 148.805 183.594C148.784 182.841 148.547 182.056 148.141 181.265C147.711 180.472 147.178 179.846 146.565 179.411C145.952 178.976 145.284 178.733 144.584 178.707C143.884 178.682 143.176 178.85 142.485 179.237C141.77 179.623 141.244 180.113 140.883 180.73C140.521 181.348 140.351 182.021 140.372 182.774C140.393 183.527 140.63 184.312 141.06 185.104C141.49 185.896 142.023 186.523 142.636 186.958C143.248 187.393 143.917 187.611 144.617 187.661C145.317 187.687 146.024 187.519 146.716 187.132C147.407 186.745 147.933 186.255 148.294 185.638Z" fill="#242F65"/>
<path d="M114.129 188.236C114.346 187.589 114.754 187.022 115.376 186.535C115.975 186.048 116.761 185.713 117.711 185.505C118.661 185.322 119.532 185.305 120.348 185.481C121.164 185.657 121.852 185.997 122.414 186.503C122.976 187.009 123.386 187.68 123.623 188.465L120.773 189.039C120.599 188.499 120.3 188.1 119.851 187.816C119.402 187.533 118.873 187.44 118.263 187.588C117.703 187.688 117.307 187.941 117.077 188.296C116.846 188.652 116.758 189.061 116.862 189.526C116.943 189.941 117.125 190.263 117.431 190.493C117.713 190.722 118.069 190.88 118.477 190.968C118.885 191.056 119.414 191.148 120.112 191.223C121.003 191.328 121.747 191.477 122.321 191.644C122.919 191.811 123.44 192.122 123.908 192.551C124.375 193.005 124.714 193.649 124.876 194.479C125.1 195.628 124.87 196.614 124.186 197.463C123.503 198.287 122.466 198.855 121.102 199.12C119.689 199.408 118.485 199.29 117.513 198.769C116.54 198.248 115.869 197.447 115.548 196.319L118.422 195.746C118.598 196.213 118.875 196.563 119.277 196.821C119.679 197.054 120.161 197.12 120.72 197.019C121.208 196.916 121.578 196.711 121.832 196.381C122.086 196.051 122.15 195.641 122.047 195.152C121.964 194.76 121.782 194.462 121.5 194.234C121.218 194.029 120.885 193.871 120.477 193.784C120.093 193.697 119.565 193.604 118.89 193.531C117.976 193.4 117.208 193.251 116.633 193.108C116.035 192.94 115.513 192.654 115.022 192.199C114.531 191.745 114.193 191.077 114.031 190.222C113.863 189.536 113.887 188.882 114.129 188.236Z" fill="#242F65"/>
<path d="M105.281 198.683L105.194 195.137L100.353 195.274L100.309 193.186L105.126 193.048L105.02 189.356L99.5985 189.496L99.534 187.31L107.667 187.076L108.034 200.749L99.9004 200.983L99.8351 198.821L105.281 198.683Z" fill="#242F65"/>
<path d="M89.7093 198.011L90.202 194.487L85.4145 193.825L85.7087 191.75L90.4961 192.411L90.9932 188.766L85.628 188.035L85.9257 185.862L93.9856 186.96L92.1313 200.527L84.0715 199.429L84.3683 197.281L89.7093 198.011Z" fill="#242F65"/>
<path d="M58.5145 190.213C57.8249 189.242 57.4054 188.159 57.3052 186.942C57.2049 185.725 57.4195 184.495 57.9722 183.278C58.5248 182.061 59.2868 181.071 60.2812 180.331C61.2757 179.591 62.3551 179.17 63.5437 179.068C64.7323 178.966 65.9101 179.155 67.0755 179.684C68.2408 180.212 69.1808 180.95 69.8704 181.922C70.5841 182.894 70.9795 183.976 71.0788 185.217C71.179 186.434 70.9644 187.664 70.4118 188.881C69.8591 190.098 69.0972 191.089 68.1036 191.804C67.11 192.52 66.0306 192.941 64.8411 193.067C63.6526 193.169 62.4747 192.98 61.3094 192.451C60.144 191.923 59.204 191.185 58.5145 190.213ZM64.4752 190.53C65.1791 190.459 65.8185 190.167 66.4159 189.704C67.0142 189.216 67.473 188.578 67.8664 187.744C68.2358 186.908 68.4092 186.138 68.3654 185.36C68.3448 184.607 68.1283 183.92 67.7142 183.346C67.3243 182.774 66.7366 182.316 66.0238 181.974C65.286 181.656 64.5902 181.509 63.8855 181.604C63.1816 181.675 62.5422 181.967 61.9439 182.454C61.3456 182.942 60.8868 183.58 60.4934 184.415C60.124 185.25 59.9506 186.02 59.9944 186.798C60.0392 187.552 60.2324 188.214 60.6456 188.812C61.0597 189.385 61.6232 189.843 62.336 190.184C63.0488 190.526 63.7955 190.602 64.4752 190.53Z" fill="#242F65"/>
<path d="M45.8977 183.513L50.6571 177.065C51.2938 176.191 51.588 175.425 51.5183 174.695C51.4485 173.964 51.0594 173.367 50.3537 172.832C49.6472 172.321 48.9532 172.125 48.2467 172.269C47.5401 172.413 46.8927 172.923 46.2559 173.797L41.5207 180.246L39.3554 178.638L44.0916 172.164C44.8302 171.148 45.6548 170.427 46.5652 169.999C47.4515 169.571 48.3753 169.435 49.2884 169.59C50.2016 169.745 51.0816 170.141 51.9295 170.755C53.2478 171.726 54.0026 172.894 54.2173 174.285C54.4329 175.651 53.968 177.114 52.8474 178.65L48.1113 185.123L45.8977 183.513Z" fill="#242F65"/>
<path d="M38.2411 158.361L36.4983 164.314L37.3122 165.193L41.2176 161.577L43.0537 163.585L33.0161 172.848L29.5066 169.006C28.4378 167.826 27.8993 166.69 27.9172 165.551C27.935 164.411 28.383 163.409 29.3095 162.545C30.0607 161.845 30.8969 161.463 31.793 161.423C32.6892 161.384 33.5978 161.66 34.4931 162.299L36.1974 156.078L38.2411 158.361ZM35.9108 166.476L34.4002 164.819C33.3546 163.665 32.319 163.554 31.2923 164.511C30.8166 164.954 30.5563 165.454 30.5376 165.963C30.5179 166.496 30.7872 167.064 31.322 167.642L32.8326 169.299L35.9108 166.476Z" fill="#242F65"/>
<path d="M25.6311 143.606L23.5078 139.548L25.3572 138.573L28.7453 145.055L16.6622 151.427L15.3975 149.003L25.6311 143.606Z" fill="#242F65"/>
<path d="M18.1072 126.66L19.7521 131.889L22.6507 131.971L23.5165 134.721L9.13196 133.996L8.20171 131.026L19.5549 122.152L20.4208 124.901L18.1072 126.66ZM16.3409 128.002L11.4661 131.68L17.5529 131.856L16.3409 128.002Z" fill="#242F65"/>
<path d="M4.08321 109.596L6.22067 109.335L6.66264 113.088L18.0529 111.737L18.3642 114.441L6.97399 115.793L7.41686 119.521L5.25526 119.781L4.08321 109.596Z" fill="#242F65"/>
<path d="M6.2408 99.6062L9.7645 99.7847L9.99145 94.9405L12.0672 95.0413L11.8403 99.8854L15.5088 100.069L15.7814 94.6444L17.9537 94.7488L17.5561 102.911L3.94426 102.215L4.34187 94.0529L6.49008 94.1563L6.2408 99.6062Z" fill="#242F65"/>
<path d="M18.8805 80.1043C19.3706 80.5833 19.7355 81.1791 19.9261 81.914C20.1166 82.6489 20.1086 83.5221 19.9047 84.4608C19.7008 85.3995 19.3566 86.2118 18.8477 86.8966C18.363 87.5824 17.7647 88.0698 17.0761 88.3841C16.3633 88.6975 15.6103 88.7911 14.792 88.6881L15.4286 85.8486C15.9822 85.9175 16.4705 85.79 16.9168 85.491C17.363 85.192 17.6456 84.7414 17.7896 84.1159C17.9067 83.5622 17.8512 83.0992 17.6223 82.751C17.3942 82.3787 17.04 82.1473 16.5839 82.0577C16.1761 81.9699 15.8121 82.005 15.4669 82.1863C15.1458 82.3686 14.8462 82.6244 14.6164 82.9557C14.3624 83.286 14.0799 83.7365 13.7186 84.354C13.2553 85.1134 12.8449 85.7533 12.4406 86.2237C12.0606 86.6949 11.5633 87.0648 10.974 87.31C10.3837 87.5794 9.65752 87.6011 8.84188 87.4255C7.69086 87.1647 6.89129 86.5529 6.41904 85.5892C5.94678 84.6256 5.84477 83.4572 6.16131 82.0859C6.47963 80.6661 7.07432 79.6205 7.92212 78.9239C8.79407 78.2282 9.79571 77.9497 10.9512 78.0893L10.3128 80.9773C9.80568 80.9586 9.39072 81.0646 8.99454 81.3169C8.6225 81.5701 8.36495 81.9973 8.24782 82.551C8.13337 83.0321 8.18973 83.4709 8.36951 83.8414C8.54929 84.212 8.90345 84.4434 9.38372 84.5339C9.76739 84.6208 10.1314 84.5857 10.4283 84.4026C10.7252 84.2194 11.0239 83.9878 11.2537 83.6566C11.4836 83.3254 11.7903 82.8757 12.1257 82.3058C12.6139 81.5231 13.0486 80.8841 13.4286 80.4128C13.8087 79.9416 14.3059 79.5717 14.9203 79.3032C15.5347 79.0347 16.2609 79.0129 17.1249 79.1904C17.7965 79.3364 18.3653 79.6486 18.8805 80.1043Z" fill="#242F65"/>
<path d="M13.4242 60.8569L15.4248 61.6828L13.9905 65.1723L24.5877 69.5906L23.5513 72.1242L12.9541 67.7059L11.5206 71.1712L9.51992 70.3453L13.4242 60.8569Z" fill="#242F65"/>
<path d="M33.7521 32.1998L41.8884 43.6849L39.6911 46.2242L30.5499 41.6655L36.3563 50.1046L34.159 52.644L21.6523 46.2386L23.5724 44.0044L32.9265 49.3473L26.7051 40.3592L28.651 38.0774L38.4335 42.9509L31.8079 34.4331L33.7521 32.1998Z" fill="#242F65"/>
<path d="M48.8212 21.5703C50.0098 21.4686 51.1626 21.6809 52.2555 22.2065C53.3484 22.732 54.2857 23.543 55.0674 24.6393C55.8249 25.7348 56.29 26.8923 56.3894 28.1334C56.5137 29.3511 56.326 30.5088 55.8028 31.5813C55.3038 32.6547 54.5204 33.5721 53.4777 34.31C52.4349 35.048 51.3072 35.4674 50.1186 35.5692C48.93 35.6709 47.7772 35.4586 46.6843 34.9331C45.5914 34.4075 44.655 33.5723 43.8733 32.4759C43.1157 31.3805 42.6506 30.223 42.5504 29.0061C42.4261 27.7884 42.638 26.6316 43.1369 25.5582C43.6601 24.4857 44.4193 23.5674 45.4621 22.8295C46.504 22.1157 47.6317 21.6963 48.8212 21.5703ZM45.4936 26.5671C45.2038 27.2115 45.1055 27.9115 45.2227 28.6679C45.3399 29.4244 45.6511 30.1638 46.1556 30.9102C46.66 31.6567 47.2691 32.1887 47.9327 32.5528C48.5963 32.917 49.2921 33.0639 49.9951 33.017C50.698 32.9702 51.3849 32.7043 52.0305 32.2429C52.6762 31.7814 53.1556 31.2411 53.4453 30.5967C53.735 29.9523 53.8334 29.2523 53.7162 28.4958C53.599 27.7393 53.2878 27 52.7833 26.2535C52.2789 25.507 51.6698 24.9751 51.0062 24.6109C50.3426 24.2468 49.6468 24.0998 48.9438 24.1467C48.2409 24.1936 47.554 24.4594 46.9083 24.9208C46.2627 25.3823 45.7833 25.9227 45.4936 26.5671Z" fill="#242F65"/>
<path d="M70.4598 24.916L65.4192 21.2849L64.3138 21.7537L66.4309 26.6357L63.9241 27.7322L58.5101 15.2072L63.2778 13.1265C64.7275 12.5006 65.9894 12.3773 67.0635 12.7566C68.1376 13.1358 68.9309 13.9172 69.4202 15.0756C69.82 16.0366 69.9077 16.9375 69.6582 17.8018C69.4087 18.6661 68.8247 19.4209 67.9304 20.0673L73.2117 23.7316L70.4598 24.916ZM63.5786 20.0525L65.6427 19.158C67.0682 18.5312 67.5136 17.6014 66.9563 16.3192C66.6889 15.7028 66.3159 15.3251 65.8151 15.1368C65.3143 14.9485 64.707 15.0232 63.9701 15.3357L61.906 16.2301L63.5786 20.0525Z" fill="#242F65"/>
<path d="M81.9069 14.153L89.0538 19.6815L85.8351 20.412L79.5396 15.4002L80.91 21.5164L78.2521 22.122L75.2626 8.76438L77.9206 8.15875L79.2713 14.1529L82.8707 7.03106L86.0652 6.29963L81.9069 14.153Z" fill="#242F65"/>
<path d="M104.791 4.05419L106.878 9.08073L112.205 10.1991L108.084 13.7593L108.659 19.1668L104.023 16.3513L99.0569 18.5702L100.316 13.2789L96.6686 9.23812L102.078 8.78243L104.791 4.05419Z" fill="#F3764F"/>
</g>
<defs>
<clipPath id="clip0_2_563">
<rect width="195" height="197" fill="white" transform="translate(7.695 0.474609) rotate(2.1113)"/>
</clipPath>
</defs>
</svg>
