<svg width="205" height="204" viewBox="0 0 205 204" fill="none" xmlns="http://www.w3.org/2000/svg">
<g clip-path="url(#clip0_319_51)">
<path d="M126.887 9.78441L126.464 11.8837L122.816 11.1412L120.55 22.2256L117.897 21.6791L120.163 10.5948L116.539 9.85359L116.962 7.75431L126.887 9.78441Z" fill="#242F65"/>
<path d="M145.137 16.5014L139.903 28.9059L137.396 27.8666L139.67 22.4805L134.353 20.2427L132.056 25.6037L129.573 24.5657L134.807 12.1611L137.29 13.1992L135.18 18.2126L140.496 20.4504L142.607 15.437L145.137 16.5014Z" fill="#242F65"/>
<path d="M153.968 34.5892L149.535 31.4925L147.196 33.156L144.864 31.53L156.618 23.5014L159.135 25.2565L155.508 38.9624L153.176 37.3363L153.968 34.5892ZM154.559 32.4988L156.207 26.7218L151.303 30.2276L154.559 32.4988Z" fill="#242F65"/>
<path d="M167.412 51.0628L165.577 49.0818L168.225 38.4707L161.478 44.6678L159.644 42.6868L169.563 33.5831L171.397 35.5641L168.698 46.244L175.496 40.0019L177.33 41.9829L167.412 51.0628Z" fill="#242F65"/>
<path d="M179.889 57.3532L176.927 65.7542L175.256 62.9475L177.998 55.536L172.681 58.6862L171.296 56.3714L182.892 49.5027L184.278 51.8174L179.061 54.9013L186.828 56.1013L188.5 58.8842L179.889 57.3532Z" fill="#242F65"/>
<path d="M183.839 78.5186C183.175 78.3879 182.57 78.0696 181.998 77.5624C181.426 77.0552 180.985 76.3404 180.675 75.4179C180.34 74.518 180.217 73.677 180.262 72.845C180.306 72.0129 180.559 71.3112 180.975 70.6896C181.391 70.0681 181.992 69.5756 182.729 69.2333L183.711 71.9319C183.219 72.168 182.864 72.5305 182.647 73.0196C182.429 73.5087 182.425 74.0329 182.634 74.6162C182.821 75.1506 183.114 75.5 183.487 75.6867C183.86 75.8735 184.291 75.8726 184.73 75.729C185.121 75.5829 185.42 75.3605 185.581 75.0353C185.766 74.7113 185.856 74.3586 185.902 73.9557C185.923 73.5515 185.952 73.0048 185.916 72.3353C185.891 71.4519 185.93 70.7149 186.01 70.1232C186.089 69.5314 186.311 68.971 186.674 68.442C187.037 67.913 187.609 67.5143 188.415 67.2234C189.514 66.8289 190.514 66.9298 191.419 67.4786C192.324 68.0274 193.016 68.9702 193.498 70.2594C193.978 71.5961 194.035 72.7673 193.693 73.7981C193.351 74.8288 192.64 75.5778 191.584 76.0699L190.604 73.3476C191.024 73.1077 191.352 72.7914 191.518 72.3711C191.708 71.9521 191.685 71.4741 191.498 70.9397C191.331 70.4778 191.062 70.1298 190.713 69.9443C190.365 69.735 189.958 69.7372 189.494 69.9033C189.128 70.0268 188.853 70.2506 188.692 70.5758C188.532 70.8772 188.418 71.2287 188.396 71.6329C188.375 72.037 188.347 72.56 188.384 73.2057C188.384 74.1116 188.367 74.8736 188.287 75.4892C188.231 76.0822 188.008 76.6664 187.621 77.1941C187.258 77.7231 186.661 78.1443 185.831 78.4339C185.152 78.5885 184.503 78.6493 183.839 78.5186Z" fill="#242F65"/>
<path d="M199.154 101.672L197.016 101.797L196.694 96.1534L193.09 96.367L193.353 100.887L191.287 101.015L191.024 96.4954L185.355 96.8374L185.186 94.1583L198.662 93.3735L199.154 101.672Z" fill="#242F65"/>
<path d="M196.838 120.001C196.095 120.915 195.173 121.581 194.026 121.997C192.878 122.413 191.675 122.516 190.368 122.327C189.062 122.114 187.938 121.649 186.971 120.907C186.005 120.164 185.337 119.222 184.916 118.127C184.496 117.032 184.39 115.858 184.577 114.604C184.786 113.376 185.251 112.28 185.994 111.366C186.737 110.452 187.683 109.787 188.807 109.37C189.954 108.954 191.157 108.851 192.487 109.065C193.792 109.278 194.917 109.743 195.883 110.486C196.826 111.227 197.519 112.146 197.938 113.265C198.359 114.36 198.464 115.534 198.278 116.788C198.091 118.041 197.557 119.086 196.838 120.001ZM195.563 114.259C195.309 113.626 194.859 113.077 194.26 112.64C193.661 112.203 192.909 111.925 192.031 111.783C191.152 111.641 190.359 111.694 189.629 111.917C188.923 112.142 188.328 112.515 187.892 113.064C187.457 113.59 187.157 114.265 187.045 115.022C186.933 115.779 186.991 116.497 187.243 117.154C187.495 117.811 187.946 118.336 188.546 118.773C189.145 119.21 189.897 119.489 190.775 119.631C191.653 119.773 192.447 119.72 193.177 119.496C193.883 119.272 194.479 118.874 194.914 118.349C195.349 117.824 195.649 117.148 195.761 116.392C195.898 115.612 195.84 114.894 195.563 114.259Z" fill="#242F65"/>
<path d="M179.579 133.816L185.602 132.683L186.02 131.584L181.088 129.772L182.012 127.247L194.672 131.902L192.883 136.718C192.326 138.19 191.555 139.174 190.571 139.67C189.563 140.165 188.483 140.203 187.308 139.782C186.345 139.421 185.657 138.86 185.195 138.096C184.732 137.333 184.591 136.396 184.743 135.331L178.52 136.621L179.579 133.816ZM187.758 132.225L187.001 134.307C186.469 135.756 186.849 136.706 188.117 137.179C188.728 137.402 189.278 137.408 189.746 137.17C190.213 136.933 190.598 136.453 190.852 135.727L191.61 133.646L187.758 132.225Z" fill="#242F65"/>
<path d="M167.528 157.325C167.275 156.692 167.215 156.021 167.351 155.266C167.487 154.51 167.838 153.766 168.43 152.987C168.997 152.23 169.651 151.645 170.366 151.254C171.081 150.863 171.81 150.663 172.577 150.656C173.342 150.673 174.049 150.902 174.745 151.32L173.02 153.588C172.532 153.3 172.058 153.204 171.527 153.294C171.019 153.387 170.572 153.673 170.188 154.153C169.853 154.588 169.71 155.033 169.76 155.441C169.81 155.849 170.03 156.219 170.422 156.502C170.744 156.757 171.097 156.871 171.481 156.844C171.842 156.816 172.207 156.716 172.552 156.52C172.898 156.324 173.368 156.039 173.939 155.664C174.66 155.154 175.303 154.783 175.843 154.525C176.384 154.268 176.988 154.157 177.634 154.168C178.28 154.178 178.936 154.452 179.604 154.964C180.525 155.657 181.004 156.54 181.043 157.615C181.081 158.69 180.665 159.765 179.842 160.841C178.992 161.964 178.02 162.675 176.953 162.929C175.886 163.182 174.865 163.008 173.891 162.408L175.643 160.093C176.085 160.331 176.512 160.402 176.971 160.331C177.43 160.26 177.827 159.995 178.163 159.536C178.471 159.147 178.612 158.749 178.586 158.343C178.559 157.936 178.362 157.592 177.947 157.284C177.625 157.052 177.295 156.939 176.958 156.969C176.598 156.997 176.257 157.098 175.911 157.295C175.566 157.491 175.121 157.753 174.574 158.129C173.805 158.637 173.162 159.008 172.62 159.289C172.08 159.546 171.474 159.681 170.828 159.67C170.182 159.66 169.502 159.385 168.811 158.872C168.185 158.481 167.782 157.959 167.528 157.325Z" fill="#242F65"/>
<path d="M162.09 177.181C160.697 177.25 159.354 176.844 158.107 175.967L160.241 174.126C160.941 174.473 161.676 174.608 162.399 174.527C163.145 174.448 163.834 174.103 164.486 173.541C165.014 173.069 165.403 172.517 165.58 171.883C165.758 171.249 165.771 170.558 165.592 169.857C165.39 169.155 164.996 168.467 164.409 167.792C163.821 167.141 163.201 166.655 162.522 166.356C161.843 166.058 161.177 165.975 160.501 166.082C159.825 166.189 159.235 166.468 158.684 166.939C158.031 167.5 157.614 168.145 157.431 168.875C157.249 169.604 157.282 170.321 157.53 171.073L155.395 172.938C154.676 171.589 154.462 170.219 154.726 168.85C154.991 167.481 155.752 166.234 157.031 165.134C158.011 164.281 159.044 163.763 160.18 163.562C161.316 163.36 162.412 163.466 163.516 163.882C164.618 164.322 165.61 165.019 166.467 166.018C167.348 167.018 167.937 168.099 168.212 169.234C168.487 170.369 168.451 171.488 168.083 172.565C167.714 173.642 167.064 174.608 166.084 175.462C164.831 176.516 163.482 177.112 162.09 177.181Z" fill="#242F65"/>
<path d="M140.973 176.2L146.295 179.249L147.332 178.66L144.749 174.088L147.094 172.783L153.702 184.506L149.21 187.009C147.853 187.771 146.618 188.015 145.53 187.767C144.442 187.518 143.593 186.829 142.98 185.748C142.476 184.863 142.308 183.971 142.474 183.098C142.64 182.225 143.114 181.416 143.943 180.697L138.357 177.658L140.973 176.2ZM148.251 180.283L146.325 181.372C144.993 182.112 144.629 183.094 145.309 184.274C145.638 184.84 146.05 185.196 146.547 185.318C147.043 185.439 147.647 185.328 148.339 184.936L150.289 183.848L148.251 180.283Z" fill="#242F65"/>
<path d="M127.467 195.102C126.307 194.849 125.307 194.296 124.416 193.485C123.525 192.675 122.911 191.617 122.523 190.357C122.135 189.097 122.057 187.876 122.311 186.698C122.565 185.52 123.098 184.499 123.911 183.636C124.723 182.773 125.737 182.16 126.93 181.794C128.147 181.43 129.323 181.373 130.483 181.626C131.643 181.878 132.643 182.432 133.533 183.266C134.422 184.1 135.038 185.134 135.449 186.42C135.859 187.705 135.915 188.9 135.661 190.078C135.407 191.257 134.873 192.278 134.061 193.14C133.249 194.003 132.258 194.618 131.042 194.982C129.802 195.322 128.626 195.378 127.467 195.102ZM132.115 191.463C132.574 190.939 132.871 190.311 133.005 189.58C133.14 188.848 133.063 188.057 132.796 187.208C132.53 186.36 132.136 185.671 131.614 185.119C131.092 184.59 130.489 184.225 129.826 184.07C129.14 183.914 128.444 183.949 127.69 184.171C126.936 184.393 126.317 184.766 125.858 185.289C125.399 185.813 125.102 186.441 124.968 187.173C124.833 187.905 124.911 188.696 125.177 189.544C125.443 190.393 125.837 191.082 126.359 191.634C126.881 192.162 127.484 192.528 128.171 192.684C128.857 192.839 129.553 192.805 130.331 192.584C131.039 192.336 131.633 191.962 132.115 191.463Z" fill="#242F65"/>
<path d="M111.896 187.122L107.393 187.573L107.191 185.536L114.39 184.799L115.785 198.176L113.112 198.463L111.896 187.122Z" fill="#242F65"/>
<path d="M98.4412 187.502L93.9041 187.261L94.0129 185.216L101.223 185.624L100.485 199.054L97.7862 198.911L98.4412 187.502Z" fill="#242F65"/>
<path d="M82.9691 197.001L85.515 183.81L88.1704 184.309L85.6233 197.524L82.9691 197.001Z" fill="#242F65"/>
<path d="M68.1804 178.358L70.7163 179.304L73.1898 189.973L76.3763 181.393L78.9122 182.339L74.2187 194.939L71.6815 194.017L69.2357 183.278L66.0215 191.928L63.4856 190.982L68.1804 178.358Z" fill="#242F65"/>
<path d="M46.8201 180.154C46.3606 178.89 46.3811 177.604 46.8818 176.295L49.2428 177.827C49.1358 178.489 49.2223 179.114 49.4998 179.748C49.7786 180.359 50.2535 180.885 50.9245 181.326C51.5729 181.742 52.2552 181.969 52.9477 182.006C53.6402 182.043 54.3202 181.864 54.9626 181.493C55.6049 181.122 56.1619 180.556 56.6561 179.819C57.4369 178.645 57.7126 177.515 57.5068 176.432C57.3011 175.348 56.6541 174.455 55.5421 173.752C54.7316 173.232 53.8808 173.02 52.9897 173.116C52.0986 173.211 51.2853 173.645 50.5523 174.369L54.3709 176.861L53.3034 178.473L47.5861 174.759L49.0184 172.595C49.6747 171.962 50.4189 171.477 51.2987 171.142C52.1786 170.808 53.1175 170.715 54.1179 170.816C55.1183 170.917 56.1035 171.303 57.076 171.927C58.1868 172.653 59.0022 173.531 59.546 174.561C60.0899 175.591 60.2944 176.699 60.1846 177.861C60.0749 179.024 59.6547 180.17 58.9254 181.275C58.1948 182.404 57.3122 183.239 56.2764 183.804C55.2406 184.369 54.1496 184.621 52.9795 184.559C51.8094 184.496 50.681 184.102 49.5702 183.376C48.2043 182.493 47.2797 181.418 46.8201 180.154Z" fill="#242F65"/>
<path d="M34.6357 171.972L41.4562 165.302L43.1209 166.869L36.8017 174.018L34.6357 171.972ZM42.3955 163.85L44.3242 161.807L46.4211 163.802L44.4937 165.821L42.3955 163.85Z" fill="#242F65"/>
<path d="M23.0749 155.67C23.098 154.336 23.5697 153.121 24.4875 152.074L26.1621 154.356C25.82 154.934 25.6903 155.571 25.7266 156.24C25.7867 156.911 26.0391 157.568 26.5076 158.213C26.9775 158.834 27.5278 159.292 28.1599 159.564C28.7919 159.836 29.4819 159.921 30.2071 159.792C30.9324 159.664 31.6677 159.346 32.3906 158.812C33.5371 157.967 34.1859 157.024 34.3874 155.938C34.5649 154.851 34.285 153.811 33.5037 152.744C32.922 151.974 32.2071 151.459 31.3324 151.246C30.4577 151.032 29.5427 151.127 28.6088 151.578L31.3109 155.25L29.742 156.382L25.6995 150.898L27.7926 149.365C28.626 149.004 29.4983 148.812 30.456 148.815C31.3898 148.817 32.311 149.057 33.1969 149.509C34.0828 149.962 34.8831 150.672 35.5765 151.591C36.3579 152.658 36.8263 153.755 36.9554 154.93C37.0857 156.082 36.9068 157.193 36.3949 158.262C35.8831 159.331 35.0922 160.243 34.0211 161.02C32.9501 161.798 31.8225 162.286 30.6398 162.462C29.4822 162.615 28.3637 162.484 27.2868 162.021C26.2099 161.558 25.2927 160.794 24.5113 159.728C23.5553 158.342 23.0744 157.029 23.0749 155.67Z" fill="#242F65"/>
<path d="M17.3594 143.374L20.5271 141.898L18.5064 137.571L20.373 136.693L22.3938 141.02L25.6834 139.502L23.4265 134.662L25.39 133.765L28.7872 141.026L16.5363 146.692L13.1404 139.407L15.08 138.509L17.3594 143.374Z" fill="#242F65"/>
<path d="M7.90647 122.559L9.97161 122.002L10.9306 125.581L21.9086 122.684L22.609 125.273L11.631 128.169L12.59 131.749L10.5248 132.306L7.90647 122.559Z" fill="#242F65"/>
<path d="M5.99805 102.17L19.5075 102.102L19.5318 104.797L6.02226 104.865L5.99805 102.17Z" fill="#242F65"/>
<path d="M21.4682 84.1591L21.04 86.8064L11.0304 91.3041L20.1004 92.7641L19.6721 95.4115L6.32804 93.271L6.75627 90.6237L16.8374 86.1298L7.6959 84.6659L8.12413 82.0186L21.4682 84.1591Z" fill="#242F65"/>
<path d="M18.317 55.6215L20.2308 56.5577L18.5695 59.8785L28.7429 64.9018L27.5368 67.317L17.3633 62.2937L15.7032 65.5907L13.7894 64.6544L18.317 55.6215Z" fill="#242F65"/>
<path d="M29.284 41.2335C30.3851 40.7915 31.5176 40.661 32.7291 40.8447C33.9167 41.0271 35.0388 41.5398 36.0729 42.3577C37.107 43.1756 37.8695 44.1459 38.3367 45.2674C38.8038 46.3889 38.9354 47.5164 38.7766 48.7C38.5953 49.8585 38.1311 50.9305 37.3352 51.9371C36.5645 52.9212 35.6166 53.6337 34.5155 54.0757C33.4143 54.5178 32.2819 54.6482 31.0704 54.4646C29.8828 54.2822 28.7606 53.7695 27.7027 52.9503C26.6686 52.1324 25.906 51.1621 25.4615 50.0656C24.9944 48.9441 24.8628 47.8166 25.0203 46.6568C25.2017 45.4983 25.6671 44.4025 26.4617 43.4197C27.2589 42.3893 28.2068 41.6769 29.284 41.2335ZM27.5715 46.8641C27.4871 47.551 27.5937 48.248 27.9177 48.9089C28.2405 49.5936 28.7355 50.1921 29.4479 50.7545C30.1616 51.2931 30.8602 51.6641 31.5954 51.7986C32.3293 51.9568 33.0269 51.8986 33.6868 51.6476C34.3467 51.3966 34.8961 50.9729 35.3839 50.3552C35.8718 49.7375 36.1699 49.0858 36.2543 48.3989C36.3388 47.712 36.2309 47.0388 35.9082 46.3541C35.5854 45.6694 35.0904 45.0709 34.378 44.5085C33.6656 43.9461 32.9656 43.5989 32.2305 43.4644C31.4965 43.3062 30.799 43.3644 30.1391 43.6154C29.4792 43.8663 28.9059 44.2888 28.4181 44.9065C27.9541 45.5255 27.656 46.1772 27.5715 46.8641Z" fill="#242F65"/>
<path d="M39.3311 30.1818L44.3462 36.2895C45.0208 37.1122 45.6905 37.5769 46.4031 37.6864C47.0918 37.7945 47.7982 37.5699 48.4733 37.0336C49.1484 36.4974 49.493 35.872 49.5309 35.1588C49.5437 34.4682 49.226 33.6884 48.574 32.8908L43.5589 26.7831L45.6357 25.1055L50.6508 31.2133C51.4373 32.1849 51.9371 33.1413 52.1015 34.1036C52.2896 35.0672 52.1938 35.9681 51.814 36.8061C51.4341 37.6441 50.8432 38.3994 50.0423 39.0482C48.7902 40.0782 47.4742 40.5088 46.1169 40.3651C44.7596 40.2213 43.4842 39.4383 42.292 37.9921L37.2769 31.8844L39.3311 30.1818Z" fill="#242F65"/>
<path d="M63.1284 16.3333C64.5032 16.5971 65.7095 17.3289 66.702 18.4783L64.1678 19.7501C63.5723 19.2416 62.9176 18.9445 62.1573 18.8325C61.4195 18.7456 60.6692 18.8964 59.8823 19.2836C59.2424 19.6072 58.7634 20.0585 58.3975 20.635C58.0555 21.2128 57.9007 21.8721 57.9105 22.5879C57.919 23.3274 58.1425 24.0783 58.5544 24.8869C58.9438 25.6705 59.4375 26.2928 60.0368 26.73C60.6123 27.1659 61.2456 27.4142 61.9369 27.4748C62.6042 27.5341 63.2578 27.402 63.8976 27.0785C64.6606 26.69 65.239 26.1724 65.5848 25.5233C65.9545 24.8754 66.088 24.1673 66.0103 23.3765L68.5445 22.1047C68.8959 23.6015 68.7987 24.9791 68.1811 26.2336C67.5862 27.5132 66.5264 28.5296 65.0255 29.2841C63.869 29.8663 62.7303 30.1156 61.5841 30.0546C60.4379 29.9936 59.381 29.6036 58.4349 28.9334C57.4661 28.2382 56.701 27.3154 56.0931 26.1387C55.4865 24.9383 55.1891 23.7781 55.2045 22.5869C55.2188 21.4195 55.5158 20.3386 56.1407 19.3944C56.7431 18.4252 57.6457 17.6627 58.8022 17.0805C60.3043 16.3022 61.7309 16.0443 63.1284 16.3333Z" fill="#242F65"/>
<path d="M83.9036 8.42686L87.2812 21.4565L84.6593 22.1276L83.1883 16.4707L77.5799 17.9126L79.0509 23.5695L76.4302 24.2167L73.0526 11.1871L75.6746 10.5161L77.0465 15.7862L82.6297 14.3668L81.2578 9.09664L83.9036 8.42686Z" fill="#242F65"/>
<path d="M100.956 4.78078L102.832 9.12419L107.477 10.0389L103.912 13.1391L104.452 17.8405L100.389 15.4311L96.0943 17.3958L97.1302 12.7783L93.914 9.31715L98.6297 8.90055L100.956 4.78078Z" fill="#F3764F"/>
</g>
<defs>
<clipPath id="clip0_319_51">
<rect width="193" height="194" fill="white" transform="translate(11.2905 0.00976562) rotate(3.04592)"/>
</clipPath>
</defs>
</svg>
